<svg xmlns="http://www.w3.org/2000/svg" version="1.1" xmlns:xlink="http://www.w3.org/1999/xlink" xmlns:svgjs="http://svgjs.dev/svgjs" width="2000" height="2000" viewBox="0 0 2000 2000"><g transform="matrix(1,0,0,1,-0.28443113772425477,-0.28443113772459583)"><svg viewBox="0 0 334 334" data-background-color="#ffffff" preserveAspectRatio="xMidYMid meet" height="2000" width="2000" xmlns="http://www.w3.org/2000/svg" xmlns:xlink="http://www.w3.org/1999/xlink"><g id="tight-bounds" transform="matrix(1,0,0,1,0.04749999999998522,0.04750000000001364)"><svg viewBox="0 0 333.90454557049503 333.90454557049503" height="333.90454557049503" width="333.90454557049503"><g><svg></svg></g><g><svg viewBox="0 0 333.90454557049503 333.90454557049503" height="333.90454557049503" width="333.90454557049503"><g><path d="M0 166.952c0-92.205 74.747-166.952 166.952-166.952 92.205 0 166.952 74.747 166.953 166.952 0 92.205-74.747 166.952-166.953 166.953-92.205 0-166.952-74.747-166.952-166.953zM166.952 329.586c89.82 0 162.634-72.814 162.634-162.634 0-89.82-72.814-162.634-162.634-162.633-89.82 0-162.634 72.814-162.633 162.633 0 89.82 72.814 162.634 162.633 162.634z" data-fill-palette-color="tertiary" fill="#471aa0" stroke="transparent"></path><ellipse rx="160.27418187383762" ry="160.27418187383762" cx="166.95227278524752" cy="166.95227278524752" fill="#471aa0" stroke="transparent" stroke-width="0" fill-opacity="1" data-fill-palette-color="tertiary"></ellipse></g><g transform="matrix(1,0,0,1,65.35186052890883,71.17305217166896)"><svg viewBox="0 0 203.20082451267737 191.55844122715712" height="191.55844122715712" width="203.20082451267737"><g><svg viewBox="0 0 203.20082451267737 191.55844122715712" height="191.55844122715712" width="203.20082451267737"><g><svg viewBox="0 0 213.1584412271571 200.94553668180288" height="191.55844122715712" width="203.20082451267737"><g transform="matrix(1,0,0,1,0,150.71010698451641)"><svg viewBox="0 0 213.1584412271571 50.23542969728648" height="50.23542969728648" width="213.1584412271571"><g id="textblocktransform"><svg viewBox="0 0 213.1584412271571 50.23542969728648" height="50.23542969728648" width="213.1584412271571" id="textblock"><g><svg viewBox="0 0 213.1584412271571 50.23542969728648" height="50.23542969728648" width="213.1584412271571"><g transform="matrix(1,0,0,1,0,0)"><svg width="213.1584412271571" viewBox="1.75 -36.95 159.64 37.63" height="50.23542969728648" data-palette-color="#ffffff"><path d="M7.35 0L1.75 0 11.6-36.95 20.13-36.95 29.88 0 24.3 0 15.83-33.52 15.88-33.52 7.35 0ZM24.25-9.38L7.45-9.38 7.45-13.88 24.25-13.88 24.25-9.38ZM38.37 0.68L38.37 0.68Q36.97 0.68 36.01-0.28 35.05-1.23 35.05-2.63L35.05-2.63Q35.05-4 36.01-4.96 36.97-5.93 38.37-5.93L38.37-5.93Q39.72-5.93 40.7-4.96 41.67-4 41.67-2.63L41.67-2.63Q41.67-1.23 40.7-0.28 39.72 0.68 38.37 0.68ZM45.95-36.88L58.97-36.88Q62.55-36.88 64.96-35.89 67.37-34.9 68.62-32.94 69.87-30.98 69.87-28.05L69.87-28.05Q69.87-25.25 68.73-23.34 67.6-21.43 65.83-20.43 64.07-19.43 62.22-19.3L62.22-19.3Q64.22-19.25 66.18-18.36 68.15-17.48 69.42-15.51 70.7-13.55 70.7-10.28L70.7-10.28Q70.7-7.13 69.43-4.81 68.17-2.5 65.55-1.25 62.92 0 58.8 0L58.8 0 45.95 0 45.95-36.88ZM51.17-35.23L51.17-19.68 49.35-21.38 56.85-21.38Q60.5-21.38 62.47-22.88 64.45-24.38 64.45-27.18L64.45-27.18Q64.45-29.08 63.62-30.21 62.8-31.35 61.26-31.86 59.72-32.38 57.62-32.38L57.62-32.38 48.72-32.38 51.17-35.23ZM48.72-4.5L57.75-4.5Q61.25-4.5 63.21-6.06 65.17-7.63 65.17-10.58L65.17-10.58Q65.17-12.35 64.53-13.56 63.9-14.78 62.8-15.5 61.7-16.23 60.25-16.56 58.8-16.9 57.15-16.9L57.15-16.9 49.35-16.9 51.17-18.6 51.17-1.65 48.72-4.5ZM79.22 0L73.62 0 83.47-36.95 91.99-36.95 101.74 0 96.17 0 87.69-33.52 87.74-33.52 79.22 0ZM96.12-9.38L79.32-9.38 79.32-13.88 96.12-13.88 96.12-9.38ZM131.31-36.88L117.29-18.43 117.42-22.6 132.17 0 126.12 0 114.19-18.4 116.82-18.05 111.47-10.98 111.99-14.45 111.99 0 106.57 0 106.57-36.88 111.99-36.88 111.99-16.98 110.94-17.85 125.47-36.88 131.31-36.88ZM142.41 0L137.11 0 137.11-36.88 150.61-36.88Q155.94-36.88 158.66-34.4 161.39-31.93 161.39-26.98L161.39-26.98Q161.39-24.08 160.28-22.03 159.16-19.98 157.6-18.86 156.04-17.75 154.66-17.6L154.66-17.6Q156.06-17.5 157.39-16.85 158.71-16.2 159.59-14.85 160.46-13.5 160.46-11.2L160.46-11.2Q160.46-9.25 160.46-7.25 160.46-5.25 160.46-3.28L160.46-3.28Q160.46-2.15 160.65-1.24 160.84-0.33 161.11 0L161.11 0 155.64 0Q155.41-0.38 155.24-1.25 155.06-2.13 155.06-3.28L155.06-3.28Q155.06-5.08 155.06-6.9 155.06-8.72 155.06-10.55L155.06-10.55Q155.06-12.93 153.65-14.11 152.24-15.3 149.54-15.3L149.54-15.3 140.94-15.3 142.41-17.23 142.41 0ZM142.41-34.45L142.41-17.68 140.94-19.8 149.59-19.8Q151.34-19.8 152.74-20.64 154.14-21.48 154.98-22.99 155.81-24.5 155.81-26.53L155.81-26.53Q155.81-29.58 154.14-30.98 152.46-32.38 149.34-32.38L149.34-32.38 140.81-32.38 142.41-34.45Z" opacity="1" transform="matrix(1,0,0,1,0,0)" fill="#ffffff" class="wordmark-text-0" data-fill-palette-color="quaternary" id="text-0"></path></svg></g></svg></g></svg></g></svg></g><g transform="matrix(1,0,0,1,37.153856771928645,0)"><svg viewBox="0 0 138.85072768329982 138.85072768329982" height="138.85072768329982" width="138.85072768329982"><g><svg xmlns="http://www.w3.org/2000/svg" xmlns:xlink="http://www.w3.org/1999/xlink" version="1.1" x="0" y="0" viewBox="9.936523299999998 9.999999899999999 80.00000020000002 80.00000020000002" style="enable-background:new 0 0 100 100;" xml:space="preserve" height="138.85072768329982" width="138.85072768329982" class="icon-icon-0" data-fill-palette-color="quaternary" id="icon-0"><path d="M16.511 56.639c3.285 0 6.007-2.423 6.491-5.576h18.417v15.157H27.002c-0.484-3.152-3.206-5.575-6.491-5.575-3.625 0-6.574 2.949-6.574 6.575 0 3.625 2.949 6.574 6.574 6.574 3.285 0 6.007-2.423 6.491-5.574h14.417v8.771c0 2.689-1.964 4.921-4.531 5.353-0.518-3.112-3.222-5.494-6.479-5.493-3.625 0-6.574 2.949-6.574 6.575 0 3.625 2.949 6.574 6.574 6.574 3.307 0 6.044-2.456 6.501-5.638 3.663-0.458 6.509-3.585 6.509-7.371v-8.771h13.035v8.771c0 3.786 2.846 6.913 6.509 7.371C63.42 87.544 66.156 90 69.463 90c3.626 0 6.575-2.949 6.575-6.574 0-3.626-2.949-6.575-6.575-6.575-3.256 0-5.959 2.382-6.478 5.493-2.568-0.432-4.531-2.664-4.531-5.353v-8.771h14.417c0.484 3.151 3.206 5.574 6.49 5.574 3.626 0 6.575-2.949 6.576-6.574 0-3.626-2.949-6.575-6.576-6.575-3.284 0-6.006 2.423-6.49 5.575H58.454v-15.157h18.417c0.484 3.152 3.206 5.575 6.49 5.576 3.626 0 6.575-2.949 6.576-6.576 0-3.625-2.949-6.574-6.576-6.574-3.284 0-6.006 2.423-6.49 5.574H58.454V33.78h14.417c0.484 3.152 3.206 5.575 6.49 5.575 3.626 0 6.575-2.949 6.576-6.575 0-3.625-2.949-6.574-6.576-6.574-3.284 0-6.006 2.423-6.49 5.574H58.454v-8.771c0-2.689 1.964-4.921 4.531-5.353 0.518 3.112 3.221 5.494 6.478 5.493 3.626 0 6.575-2.949 6.575-6.575 0-3.625-2.949-6.574-6.575-6.574-3.306 0-6.043 2.456-6.5 5.638-3.664 0.458-6.509 3.585-6.509 7.371v8.771H43.419v-8.771c0-3.786-2.846-6.913-6.509-7.371C36.453 12.456 33.716 10 30.409 10c-3.625 0-6.574 2.949-6.574 6.574 0 3.626 2.949 6.575 6.574 6.575 3.257 0 5.96-2.382 6.479-5.493 2.568 0.432 4.531 2.664 4.531 5.353v8.771H27.002c-0.484-3.151-3.206-5.574-6.491-5.574-3.625 0-6.574 2.949-6.574 6.574 0 3.626 2.949 6.575 6.574 6.575 3.285 0 6.007-2.423 6.491-5.575h14.417v15.283H23.002c-0.484-3.151-3.206-5.574-6.491-5.574-3.625 0-6.574 2.949-6.574 6.574C9.937 53.689 12.886 56.639 16.511 56.639zM20.511 71.794c-2.522 0-4.574-2.052-4.574-4.574s2.052-4.575 4.574-4.575 4.575 2.053 4.575 4.575S23.033 71.794 20.511 71.794zM30.409 88c-2.522 0-4.574-2.052-4.574-4.574s2.052-4.575 4.574-4.575 4.575 2.053 4.575 4.575S32.932 88 30.409 88zM69.463 78.851c2.522 0 4.575 2.053 4.575 4.575S71.985 88 69.463 88s-4.574-2.052-4.574-4.574S66.94 78.851 69.463 78.851zM79.361 62.645c2.522 0 4.575 2.053 4.576 4.575s-2.053 4.574-4.576 4.574-4.574-2.052-4.574-4.574S76.839 62.645 79.361 62.645zM83.361 45.489c2.522 0 4.575 2.052 4.576 4.574s-2.053 4.575-4.576 4.576-4.574-2.053-4.574-4.576S80.839 45.489 83.361 45.489zM79.361 28.206c2.522 0 4.575 2.052 4.576 4.574s-2.053 4.575-4.576 4.575-4.574-2.053-4.574-4.575S76.839 28.206 79.361 28.206zM69.463 12c2.522 0 4.575 2.052 4.575 4.574s-2.053 4.575-4.575 4.575-4.574-2.053-4.574-4.575S66.94 12 69.463 12zM30.409 21.149c-2.522 0-4.574-2.053-4.574-4.575S27.887 12 30.409 12s4.575 2.052 4.575 4.574S32.932 21.149 30.409 21.149zM20.511 37.355c-2.522 0-4.574-2.053-4.574-4.575s2.052-4.574 4.574-4.574 4.575 2.052 4.575 4.574S23.033 37.355 20.511 37.355zM43.419 66.22v-15.157h13.035v15.157H43.419zM56.454 33.78v15.283H43.419V33.78H56.454zM16.511 45.489c2.522 0 4.575 2.052 4.575 4.574s-2.053 4.575-4.575 4.576-4.574-2.053-4.574-4.576S13.988 45.489 16.511 45.489z" fill="#ffffff" data-fill-palette-color="quaternary"></path></svg></g></svg></g><g></g></svg></g></svg></g></svg></g></svg></g><defs></defs></svg><rect width="333.90454557049503" height="333.90454557049503" fill="none" stroke="none" visibility="hidden"></rect></g></svg></g></svg>