<svg xmlns="http://www.w3.org/2000/svg" version="1.1" xmlns:xlink="http://www.w3.org/1999/xlink" xmlns:svgjs="http://svgjs.dev/svgjs" width="128" height="128" viewBox="0 0 128 128"><g transform="matrix(0.8046875,0,0,0.8046875,12.411840748212605,12.814873242367192)"><svg viewBox="0 0 98 98" data-background-color="#ffffff" preserveAspectRatio="xMidYMid meet" height="127" width="128" xmlns="http://www.w3.org/2000/svg" xmlns:xlink="http://www.w3.org/1999/xlink"><g id="tight-bounds" transform="matrix(1,0,0,1,0.0838796764579115,0.0838796764579115)"><svg viewBox="0 0 97.83224064708416 97.83224064708416" height="97.83224064708416" width="97.83224064708416"><g><svg></svg></g><g><svg viewBox="0 0 97.83224064708416 97.83224064708416" height="97.83224064708416" width="97.83224064708416"><g><path d="M0 48.916c0-27.016 21.9-48.916 48.916-48.916 27.016 0 48.916 21.9 48.916 48.916 0 27.016-21.9 48.916-48.916 48.916-27.016 0-48.916-21.9-48.916-48.916zM48.916 93.244c24.481 0 44.328-19.846 44.328-44.328 0-24.481-19.846-44.328-44.328-44.327-24.481 0-44.328 19.846-44.327 44.327 0 24.481 19.846 44.328 44.327 44.328z" data-fill-palette-color="tertiary" fill="#471aa0" stroke="transparent"></path><ellipse rx="46.9594755106004" ry="46.9594755106004" cx="48.91612032354208" cy="48.91612032354208" fill="#471aa0" stroke="transparent" stroke-width="0" fill-opacity="1" data-fill-palette-color="tertiary"></ellipse></g><g transform="matrix(1,0,0,1,23.475393915029343,23.475393915029343)"><svg viewBox="0 0 50.881452817025476 50.881452817025476" height="50.881452817025476" width="50.881452817025476"><g><svg viewBox="0 0 50.881452817025476 50.881452817025476" height="50.881452817025476" width="50.881452817025476"><g><svg viewBox="0 0 50.881452817025476 50.881452817025476" height="50.881452817025476" width="50.881452817025476"><g id="textblocktransform"><svg viewBox="0 0 50.881452817025476 50.881452817025476" height="50.881452817025476" width="50.881452817025476" id="textblock"><g><svg viewBox="0 0 50.881452817025476 50.881452817025476" height="50.881452817025476" width="50.881452817025476"><g><svg viewBox="0 0 50.881452817025476 50.881452817025476" height="50.881452817025476" width="50.881452817025476"><g><svg xmlns="http://www.w3.org/2000/svg" xmlns:xlink="http://www.w3.org/1999/xlink" version="1.1" x="0" y="0" viewBox="9.936523299999998 9.999999899999999 80.00000020000002 80.00000020000002" style="enable-background:new 0 0 100 100;" xml:space="preserve" height="50.881452817025476" width="50.881452817025476" class="icon-icon-0" data-fill-palette-color="quaternary" id="icon-0"><path d="M16.511 56.639c3.285 0 6.007-2.423 6.491-5.576h18.417v15.157H27.002c-0.484-3.152-3.206-5.575-6.491-5.575-3.625 0-6.574 2.949-6.574 6.575 0 3.625 2.949 6.574 6.574 6.574 3.285 0 6.007-2.423 6.491-5.574h14.417v8.771c0 2.689-1.964 4.921-4.531 5.353-0.518-3.112-3.222-5.494-6.479-5.493-3.625 0-6.574 2.949-6.574 6.575 0 3.625 2.949 6.574 6.574 6.574 3.307 0 6.044-2.456 6.501-5.638 3.663-0.458 6.509-3.585 6.509-7.371v-8.771h13.035v8.771c0 3.786 2.846 6.913 6.509 7.371C63.42 87.544 66.156 90 69.463 90c3.626 0 6.575-2.949 6.575-6.574 0-3.626-2.949-6.575-6.575-6.575-3.256 0-5.959 2.382-6.478 5.493-2.568-0.432-4.531-2.664-4.531-5.353v-8.771h14.417c0.484 3.151 3.206 5.574 6.49 5.574 3.626 0 6.575-2.949 6.576-6.574 0-3.626-2.949-6.575-6.576-6.575-3.284 0-6.006 2.423-6.49 5.575H58.454v-15.157h18.417c0.484 3.152 3.206 5.575 6.49 5.576 3.626 0 6.575-2.949 6.576-6.576 0-3.625-2.949-6.574-6.576-6.574-3.284 0-6.006 2.423-6.49 5.574H58.454V33.78h14.417c0.484 3.152 3.206 5.575 6.49 5.575 3.626 0 6.575-2.949 6.576-6.575 0-3.625-2.949-6.574-6.576-6.574-3.284 0-6.006 2.423-6.49 5.574H58.454v-8.771c0-2.689 1.964-4.921 4.531-5.353 0.518 3.112 3.221 5.494 6.478 5.493 3.626 0 6.575-2.949 6.575-6.575 0-3.625-2.949-6.574-6.575-6.574-3.306 0-6.043 2.456-6.5 5.638-3.664 0.458-6.509 3.585-6.509 7.371v8.771H43.419v-8.771c0-3.786-2.846-6.913-6.509-7.371C36.453 12.456 33.716 10 30.409 10c-3.625 0-6.574 2.949-6.574 6.574 0 3.626 2.949 6.575 6.574 6.575 3.257 0 5.96-2.382 6.479-5.493 2.568 0.432 4.531 2.664 4.531 5.353v8.771H27.002c-0.484-3.151-3.206-5.574-6.491-5.574-3.625 0-6.574 2.949-6.574 6.574 0 3.626 2.949 6.575 6.574 6.575 3.285 0 6.007-2.423 6.491-5.575h14.417v15.283H23.002c-0.484-3.151-3.206-5.574-6.491-5.574-3.625 0-6.574 2.949-6.574 6.574C9.937 53.689 12.886 56.639 16.511 56.639zM20.511 71.794c-2.522 0-4.574-2.052-4.574-4.574s2.052-4.575 4.574-4.575 4.575 2.053 4.575 4.575S23.033 71.794 20.511 71.794zM30.409 88c-2.522 0-4.574-2.052-4.574-4.574s2.052-4.575 4.574-4.575 4.575 2.053 4.575 4.575S32.932 88 30.409 88zM69.463 78.851c2.522 0 4.575 2.053 4.575 4.575S71.985 88 69.463 88s-4.574-2.052-4.574-4.574S66.94 78.851 69.463 78.851zM79.361 62.645c2.522 0 4.575 2.053 4.576 4.575s-2.053 4.574-4.576 4.574-4.574-2.052-4.574-4.574S76.839 62.645 79.361 62.645zM83.361 45.489c2.522 0 4.575 2.052 4.576 4.574s-2.053 4.575-4.576 4.576-4.574-2.053-4.574-4.576S80.839 45.489 83.361 45.489zM79.361 28.206c2.522 0 4.575 2.052 4.576 4.574s-2.053 4.575-4.576 4.575-4.574-2.053-4.574-4.575S76.839 28.206 79.361 28.206zM69.463 12c2.522 0 4.575 2.052 4.575 4.574s-2.053 4.575-4.575 4.575-4.574-2.053-4.574-4.575S66.94 12 69.463 12zM30.409 21.149c-2.522 0-4.574-2.053-4.574-4.575S27.887 12 30.409 12s4.575 2.052 4.575 4.574S32.932 21.149 30.409 21.149zM20.511 37.355c-2.522 0-4.574-2.053-4.574-4.575s2.052-4.574 4.574-4.574 4.575 2.052 4.575 4.574S23.033 37.355 20.511 37.355zM43.419 66.22v-15.157h13.035v15.157H43.419zM56.454 33.78v15.283H43.419V33.78H56.454zM16.511 45.489c2.522 0 4.575 2.052 4.575 4.574s-2.053 4.575-4.575 4.576-4.574-2.053-4.574-4.576S13.988 45.489 16.511 45.489z" fill="#ffffff" data-fill-palette-color="quaternary"></path></svg></g></svg></g></svg></g></svg></g></svg></g><g></g></svg></g></svg></g></svg></g><defs></defs></svg><rect width="97.83224064708416" height="97.83224064708416" fill="none" stroke="none" visibility="hidden"></rect></g></svg></g></svg>